<?xml version="1.0" encoding="UTF-8"?>
<svg width="136px" height="62px" viewBox="0 0 136 62" version="1.1" xmlns="http://www.w3.org/2000/svg" xmlns:xlink="http://www.w3.org/1999/xlink">
    <!-- Generator: Sketch 53.2 (72643) - https://sketchapp.com -->
    <title>LP_logo_26</title>
    <desc>Created with Sketch.</desc>
    <g id="LP_logo_26" stroke="none" stroke-width="1" fill="none" fill-rule="evenodd">
        <g id="Group" transform="translate(61.000000, 24.000000)" fill="#FFFFFF">
            <path d="M9,12.5721 L11,12.5721 L11,4.00008844 L9,4.00008844 L9,12.5721 Z M9,2.69826902 L11,2.69826902 L11,0.5721 L9,0.5721 L9,2.69826902 Z" id="Fill-2"></path>
            <polygon id="Fill-3" points="0 0.5721 2.15276784 0.5721 2.15276784 10.6174966 7 10.6174966 7 12.5721 0 12.5721"></polygon>
            <path d="M20.8509,5.2678 C21.3899,5.9628 21.6579,6.8988 21.6579,8.0748 L21.6579,12.7628 L19.5749,12.7628 L19.5749,8.2428 C19.5749,7.4578 19.4429,6.8788 19.1799,6.5028 C18.9169,6.1278 18.4939,5.9408 17.9119,5.9408 C17.2719,5.9408 16.7449,6.1808 16.3309,6.6628 L16.3309,12.7628 L14.2479,12.7628 L14.2479,4.3608 L16.1969,4.3608 L16.2299,4.9488 C16.9359,4.4668 17.6869,4.2268 18.4819,4.2268 C19.5249,4.2268 20.3139,4.5748 20.8509,5.2678" id="Fill-4"></path>
            <polygon id="Fill-6" points="24.3362 1.0002 26.4202 1.0002 26.4202 7.8062 29.0242 4.3602 31.3772 4.3602 28.3182 8.3942 31.4442 12.7632 29.0912 12.7632 26.4202 9.0322 26.4202 12.7632 24.3362 12.7632"></polygon>
            <path d="M37.4984,6.881 C38.2374,6.881 38.7894,6.713 39.1544,6.377 C39.5184,6.041 39.6994,5.526 39.6994,4.831 C39.6994,4.136 39.5154,3.624 39.1444,3.294 C38.7754,2.963 38.2094,2.797 37.4474,2.797 L35.6664,2.797 L35.6664,6.881 L37.4984,6.881 Z M33.5164,1 L37.7004,1 C40.4904,1 41.8854,2.266 41.8854,4.797 C41.8854,6.108 41.5314,7.083 40.8264,7.721 C40.1204,8.36 39.0954,8.679 37.7504,8.679 L35.6664,8.679 L35.6664,12.763 L33.5164,12.763 L33.5164,1 Z" id="Fill-8"></path>
            <path d="M48.8538,10.4943 C49.2418,10.0133 49.4338,9.3743 49.4338,8.5783 C49.4338,7.7713 49.2418,7.1253 48.8538,6.6373 C48.4668,6.1503 47.9328,5.9063 47.2498,5.9063 C46.5668,5.9063 46.0308,6.1503 45.6438,6.6373 C45.2578,7.1253 45.0648,7.7713 45.0648,8.5783 C45.0648,9.3743 45.2578,10.0133 45.6438,10.4943 C46.0308,10.9753 46.5668,11.2173 47.2498,11.2173 C47.9328,11.2173 48.4668,10.9753 48.8538,10.4943 M44.9478,12.3423 C44.2968,11.9513 43.7978,11.4243 43.4518,10.7643 C43.1038,10.1023 42.9308,9.3743 42.9308,8.5783 C42.9308,7.7833 43.1038,7.0503 43.4518,6.3773 C43.7978,5.7043 44.2968,5.1723 44.9478,4.7813 C45.5958,4.3883 46.3648,4.1913 47.2498,4.1913 C48.1338,4.1913 48.9018,4.3883 49.5508,4.7813 C50.2018,5.1723 50.6998,5.7043 51.0468,6.3773 C51.3948,7.0503 51.5688,7.7833 51.5688,8.5783 C51.5688,9.3743 51.3948,10.1023 51.0468,10.7643 C50.6998,11.4243 50.2018,11.9513 49.5508,12.3423 C48.9018,12.7343 48.1338,12.9323 47.2498,12.9323 C46.3648,12.9323 45.5958,12.7343 44.9478,12.3423" id="Fill-10"></path>
            <path d="M58.8421,10.4943 C59.2291,10.0133 59.4211,9.3743 59.4211,8.5783 C59.4211,7.7713 59.2291,7.1253 58.8421,6.6373 C58.4551,6.1503 57.9211,5.9063 57.2381,5.9063 C56.5541,5.9063 56.0191,6.1503 55.6321,6.6373 C55.2461,7.1253 55.0521,7.7713 55.0521,8.5783 C55.0521,9.3743 55.2461,10.0133 55.6321,10.4943 C56.0191,10.9753 56.5541,11.2173 57.2381,11.2173 C57.9211,11.2173 58.4551,10.9753 58.8421,10.4943 M54.9361,12.3423 C54.2851,11.9513 53.7861,11.4243 53.4391,10.7643 C53.0911,10.1023 52.9191,9.3743 52.9191,8.5783 C52.9191,7.7833 53.0911,7.0503 53.4391,6.3773 C53.7861,5.7043 54.2851,5.1723 54.9361,4.7813 C55.5841,4.3883 56.3531,4.1913 57.2381,4.1913 C58.1221,4.1913 58.8901,4.3883 59.5391,4.7813 C60.1901,5.1723 60.6871,5.7043 61.0341,6.3773 C61.3821,7.0503 61.5561,7.7833 61.5561,8.5783 C61.5561,9.3743 61.3821,10.1023 61.0341,10.7643 C60.6871,11.4243 60.1901,11.9513 59.5391,12.3423 C58.8901,12.7343 58.1221,12.9323 57.2381,12.9323 C56.3531,12.9323 55.5841,12.7343 54.9361,12.3423" id="Fill-12"></path>
            <polygon id="Fill-14" points="63.394 12.7691 65.477 12.7691 65.477 0.9991 63.394 0.9991"></polygon>
        </g>
        <g id="Group-22" transform="translate(7.000000, 5.000000)" fill="#FFFFFF">
            <g id="Group-2" transform="translate(0.874765, 0.810900)">
                <polygon id="Fill-16" points="35.6216471 7.97824655 32.7425294 9.64629828 32.7425294 11.8524879 35.6216471 10.1835569 41.5960588 13.6199017 41.5960588 20.4952293 27.7307647 28.4723328 27.7307647 31.7310569 29.6472353 32.8345914 29.6472353 29.5758672 43.5125294 21.5970052 43.5125294 12.5172466"></polygon>
                <path d="M27.7305,44.4266276 L21.7560882,47.8638517 L15.7816765,44.4266276 L15.7816765,30.167731 C15.7816765,29.122231 15.2152059,28.1453172 14.3037353,27.6212483 L12.8990294,26.827231 L10.9649118,27.9413172 L13.3507941,29.2787483 C13.6675588,29.4607655 13.8652059,29.8019379 13.8652059,30.167731 L13.8652059,45.5301621 L21.7560882,50.0700414 L29.6478529,45.5301621 L29.6478529,42.1791103 L27.7305,41.0755759 L27.7305,44.4266276 Z" id="Fill-17"></path>
                <polygon id="Fill-18" points="1.91647059 36.4493483 1.91647059 29.5757793 7.88823529 26.1394345 7.89264706 26.1420724 15.7817647 21.5969172 15.7817647 18.3162103 13.8652941 17.2126759 13.8652941 20.4942621 -1.42108547e-14 28.4722448 -1.42108547e-14 37.5528828 7.89088235 42.0927621 10.7955882 40.3921759 10.7955882 38.1868655 7.89088235 39.8865724"></polygon>
                <polygon id="Fill-19" points="15.7816765 5.64253448 21.7560882 2.20531034 27.7305 5.64253448 27.7305 21.5976207 30.6343235 23.2217069 32.5613824 22.1128966 29.6478529 20.4949655 29.6478529 4.539 21.7560882 0 13.8652059 4.539 13.8652059 7.83025862 15.7816765 8.9337931"></polygon>
                <polygon id="Fill-20" points="4.77547059 22.1150069 1.91664706 20.4944379 1.91664706 13.6199897 7.89017647 10.1836448 21.7563529 18.1607483 24.6354706 16.4531276 24.6354706 14.2469379 21.7563529 15.9545586 7.89017647 7.97657586 0.000176470588 12.5173345 0.000176470588 21.5970931 2.85017647 23.2220586"></polygon>
                <polygon id="Fill-21" points="43.5128824 31.8672621 43.5128824 31.8672621 43.5128824 28.4863138 40.6831765 26.8279345 38.7455294 27.9429 41.5955294 29.5898483 41.5955294 31.8672621 41.5955294 36.4493483 35.622 39.8865724 21.7567059 31.909469 18.9031765 33.5801586 18.9031765 35.7863483 21.7567059 34.1156586 35.622 42.0927621 43.4634706 37.5810207 43.5128824 37.5660724 43.5128824 37.5528828"></polygon>
            </g>
        </g>
    </g>
</svg>